<?xml version="1.0" standalone="no"?>
 <!DOCTYPE svg PUBLIC "-//W3C//DTD SVG 1.1//EN" 
 "http://www.w3.org/Graphics/SVG/1.1/DTD/svg11.dtd"> 
<svg xmlns="http://www.w3.org/2000/svg" version="1.1" 
    width="41.9989cm" height="29.7002cm" viewBox="0 0 165350 116930 ">
<title>SVG Picture created as so16-F_Cu.svg date 2014/08/14 22:24:04 </title>
  <desc>Picture generated by PCBNEW </desc>
<g style="fill:#000000; fill-opacity:1;stroke:#000000; stroke-opacity:1;
stroke-linecap:round; stroke-linejoin:round; "
 transform="translate(0 0) scale(1 1)">
</g>
<g style="fill:#000000; fill-opacity:0.0; 
stroke:#000000; stroke-width:59.0551; stroke-opacity:1; 
stroke-linecap:round; stroke-linejoin:round;">
</g>
<g style="fill:#000000; fill-opacity:1.0; 
stroke:#000000; stroke-width:59.0551; stroke-opacity:1; 
stroke-linecap:round; stroke-linejoin:round;">
<polyline style="fill-rule:evenodd;"
points="71179,54533
71179,53805
71320,53805
71320,54533
71179,54533
" /> 
<polyline style="fill-rule:evenodd;"
points="71679,54533
71679,53805
71820,53805
71820,54533
71679,54533
" /> 
<polyline style="fill-rule:evenodd;"
points="72179,54533
72179,53805
72320,53805
72320,54533
72179,54533
" /> 
<polyline style="fill-rule:evenodd;"
points="72679,54533
72679,53805
72820,53805
72820,54533
72679,54533
" /> 
<polyline style="fill-rule:evenodd;"
points="73179,54533
73179,53805
73320,53805
73320,54533
73179,54533
" /> 
<polyline style="fill-rule:evenodd;"
points="73679,54533
73679,53805
73820,53805
73820,54533
73679,54533
" /> 
<polyline style="fill-rule:evenodd;"
points="74179,54533
74179,53805
74320,53805
74320,54533
74179,54533
" /> 
<polyline style="fill-rule:evenodd;"
points="74679,54533
74679,53805
74820,53805
74820,54533
74679,54533
" /> 
<polyline style="fill-rule:evenodd;"
points="74679,52194
74679,51466
74820,51466
74820,52194
74679,52194
" /> 
<polyline style="fill-rule:evenodd;"
points="74179,52194
74179,51466
74320,51466
74320,52194
74179,52194
" /> 
<polyline style="fill-rule:evenodd;"
points="73679,52194
73679,51466
73820,51466
73820,52194
73679,52194
" /> 
<polyline style="fill-rule:evenodd;"
points="73179,52194
73179,51466
73320,51466
73320,52194
73179,52194
" /> 
<polyline style="fill-rule:evenodd;"
points="72679,52194
72679,51466
72820,51466
72820,52194
72679,52194
" /> 
<polyline style="fill-rule:evenodd;"
points="72179,52194
72179,51466
72320,51466
72320,52194
72179,52194
" /> 
<polyline style="fill-rule:evenodd;"
points="71679,52194
71679,51466
71820,51466
71820,52194
71679,52194
" /> 
<polyline style="fill-rule:evenodd;"
points="71179,52194
71179,51466
71320,51466
71320,52194
71179,52194
" /> 
<circle cx="69500" cy="56000" r="364.173" /> 
<circle cx="70500" cy="56000" r="364.173" /> 
<circle cx="71500" cy="56000" r="364.173" /> 
<circle cx="72500" cy="56000" r="364.173" /> 
<circle cx="73500" cy="56000" r="364.173" /> 
<circle cx="74500" cy="56000" r="364.173" /> 
<circle cx="75500" cy="56000" r="364.173" /> 
<circle cx="76500" cy="56000" r="364.173" /> 
<circle cx="69500" cy="50000" r="364.173" /> 
<circle cx="70500" cy="50000" r="364.173" /> 
<circle cx="71500" cy="50000" r="364.173" /> 
<circle cx="72500" cy="50000" r="364.173" /> 
<circle cx="73500" cy="50000" r="364.173" /> 
<circle cx="74500" cy="50000" r="364.173" /> 
<circle cx="75500" cy="50000" r="364.173" /> 
<circle cx="76500" cy="50000" r="364.173" /> 
<polyline style="fill-rule:evenodd;"
points="81179,51948
81179,51220
81320,51220
81320,51948
81179,51948
" /> 
<polyline style="fill-rule:evenodd;"
points="81679,51948
81679,51220
81820,51220
81820,51948
81679,51948
" /> 
<polyline style="fill-rule:evenodd;"
points="82179,51948
82179,51220
82320,51220
82320,51948
82179,51948
" /> 
<polyline style="fill-rule:evenodd;"
points="82679,51948
82679,51220
82820,51220
82820,51948
82679,51948
" /> 
<polyline style="fill-rule:evenodd;"
points="82679,54779
82679,54051
82820,54051
82820,54779
82679,54779
" /> 
<polyline style="fill-rule:evenodd;"
points="82179,54779
82179,54051
82320,54051
82320,54779
82179,54779
" /> 
<polyline style="fill-rule:evenodd;"
points="81679,54779
81679,54051
81820,54051
81820,54779
81679,54779
" /> 
<polyline style="fill-rule:evenodd;"
points="81179,54779
81179,54051
81320,54051
81320,54779
81179,54779
" /> 
<circle cx="80500" cy="56000" r="364.173" /> 
<circle cx="81500" cy="56000" r="364.173" /> 
<circle cx="82500" cy="56000" r="364.173" /> 
<circle cx="83500" cy="56000" r="364.173" /> 
<circle cx="80500" cy="50000" r="364.173" /> 
<circle cx="81500" cy="50000" r="364.173" /> 
<circle cx="82500" cy="50000" r="364.173" /> 
<circle cx="83500" cy="50000" r="364.173" /> 
</g>
<g style="fill:#000000; fill-opacity:1.0; 
stroke:#000000; stroke-width:196.85; stroke-opacity:1; 
stroke-linecap:round; stroke-linejoin:round;">
<path d="M81250 54415
L80820 54415
" />
<path d="M80500 54736
L80500 56000
" />
<path d="M80820 54415
L80500 54736
" />
<path d="M82250 51584
L82250 50938
" />
<path d="M82500 50688
L82500 50000
" />
<path d="M82250 50938
L82500 50688
" />
<path d="M73750 54169
L73750 54812
" />
<path d="M74500 55562
L74500 56000
" />
<path d="M73750 54812
L74500 55562
" />
<path d="M73250 51830
L73250 51080
" />
<path d="M73500 50830
L73500 50000
" />
<path d="M73250 51080
L73500 50830
" />
<path d="M71250 54169
L70259 54169
" />
<path d="M69500 54929
L69500 56000
" />
<path d="M70259 54169
L69500 54929
" />
<path d="M71250 51830
L70334 51830
" />
<path d="M69500 50996
L69500 50000
" />
<path d="M70334 51830
L69500 50996
" />
<path d="M71750 51830
L71750 51277
" />
<path d="M70500 50834
L70500 50000
" />
<path d="M70511 50846
L70500 50834
" />
<path d="M71318 50846
L70511 50846
" />
<path d="M71750 51277
L71318 50846
" />
<path d="M72250 51830
L72250 51187
" />
<path d="M71500 50437
L71500 50000
" />
<path d="M72250 51187
L71500 50437
" />
<path d="M72750 51830
L72750 51057
" />
<path d="M72500 50807
L72500 50000
" />
<path d="M72750 51057
L72500 50807
" />
<path d="M73750 51830
L73750 51190
" />
<path d="M74500 50440
L74500 50000
" />
<path d="M73750 51190
L74500 50440
" />
<path d="M75492 50866
L75492 50007
" />
<path d="M74250 51242
L74625 50866
" />
<path d="M74625 50866
L75492 50866
" />
<path d="M74250 51830
L74250 51242
" />
<path d="M75492 50007
L75500 50000
" />
<path d="M81750 54415
L81750 55041
" />
<path d="M81500 55291
L81500 56000
" />
<path d="M81750 55041
L81500 55291
" />
<path d="M74750 51830
L75590 51830
" />
<path d="M76500 50921
L76500 50000
" />
<path d="M75590 51830
L76500 50921
" />
<path d="M73250 54169
L73250 54942
" />
<path d="M73500 55192
L73500 56000
" />
<path d="M73250 54942
L73500 55192
" />
<path d="M72750 54169
L72750 54966
" />
<path d="M72500 55216
L72500 56000
" />
<path d="M72750 54966
L72500 55216
" />
<path d="M72250 54169
L72250 54757
" />
<path d="M71500 55507
L71500 56000
" />
<path d="M72250 54757
L71500 55507
" />
<path d="M71750 54169
L71750 54706
" />
<path d="M70500 55287
L70500 56000
" />
<path d="M70511 55275
L70500 55287
" />
<path d="M71181 55275
L70511 55275
" />
<path d="M71750 54706
L71181 55275
" />
<path d="M82250 54415
L82250 55045
" />
<path d="M82500 55295
L82500 56000
" />
<path d="M82250 55045
L82500 55295
" />
<path d="M81250 51584
L80935 51584
" />
<path d="M80500 51149
L80500 50000
" />
<path d="M80935 51584
L80500 51149
" />
<path d="M82750 54415
L83175 54415
" />
<path d="M83500 54740
L83500 56000
" />
<path d="M83175 54415
L83500 54740
" />
<path d="M74750 54169
L75744 54169
" />
<path d="M76500 54925
L76500 56000
" />
<path d="M75744 54169
L76500 54925
" />
<path d="M74250 54169
L74250 54761
" />
<path d="M75500 55244
L75500 56000
" />
<path d="M75492 55236
L75500 55244
" />
<path d="M74724 55236
L75492 55236
" />
<path d="M74250 54761
L74724 55236
" />
<path d="M82750 51584
L83061 51584
" />
<path d="M83500 51145
L83500 50000
" />
<path d="M83061 51584
L83500 51145
" />
<path d="M81750 51584
L81750 50962
" />
<path d="M81500 50712
L81500 50000
" />
<path d="M81750 50962
L81500 50712
" />
</g>
<g style="fill:#FFFFFF; fill-opacity:1.0; 
stroke:#FFFFFF; stroke-width:59.0551; stroke-opacity:1; 
stroke-linecap:round; stroke-linejoin:round;">
<circle cx="69500" cy="56000" r="167.323" /> 
<circle cx="70500" cy="56000" r="167.323" /> 
<circle cx="71500" cy="56000" r="167.323" /> 
<circle cx="72500" cy="56000" r="167.323" /> 
<circle cx="73500" cy="56000" r="167.323" /> 
<circle cx="74500" cy="56000" r="167.323" /> 
<circle cx="75500" cy="56000" r="167.323" /> 
<circle cx="76500" cy="56000" r="167.323" /> 
<circle cx="69500" cy="50000" r="167.323" /> 
<circle cx="70500" cy="50000" r="167.323" /> 
<circle cx="71500" cy="50000" r="167.323" /> 
<circle cx="72500" cy="50000" r="167.323" /> 
<circle cx="73500" cy="50000" r="167.323" /> 
<circle cx="74500" cy="50000" r="167.323" /> 
<circle cx="75500" cy="50000" r="167.323" /> 
<circle cx="76500" cy="50000" r="167.323" /> 
<circle cx="80500" cy="56000" r="167.323" /> 
<circle cx="81500" cy="56000" r="167.323" /> 
<circle cx="82500" cy="56000" r="167.323" /> 
<circle cx="83500" cy="56000" r="167.323" /> 
<circle cx="80500" cy="50000" r="167.323" /> 
<circle cx="81500" cy="50000" r="167.323" /> 
<circle cx="82500" cy="50000" r="167.323" /> 
<circle cx="83500" cy="50000" r="167.323" /> 
</g> 
</svg>
